<?xml version="1.0" encoding="utf-8"?>
<!-- Generator: Adobe Illustrator 28.0.0, SVG Export Plug-In . SVG Version: 6.00 Build 0)  -->
<svg version="1.1" class= "logo-animado" istroke="#101820" fill="#101820" d="Capa_1" xmlns="http://www.w3.org/2000/svg" xmlns:xlink="http://www.w3.org/1999/xlink" x="0px" y="0px"
	 viewBox="0 0 595.3 841.9" style="enable-background:new 0 0 595.3 841.9;" xml:space="preserve">

<g>
	<path class="svg-elem-1" stroke="#101820" fill="#101820" d="M65.4,260v0.6c-0.3,1.6-0.3,3.2,0,4.8c1,9,5.8,15.1,14.1,18.3c10.9,4.5,21.8,3.5,32.7-0.3c1.6-0.6,2.2-0.3,3.2,1
		c12.5,13.8,27.9,18.6,45.8,13.1c1.3-0.3,2.2-0.3,3.5,0.3c2.2,1.3,4.5,2.2,6.7,2.9c7.7,2.9,15.7,4.2,24,4.8
		c6.4,0.3,12.8,0.3,19.2-0.3c2.2,0,3.8,0.3,5.8,1.3c9.6,5.4,19.9,8,30.7,7.7c10.6-0.3,20.2-3.2,29.5-8.3c1-0.3,1.6-1,2.6-1.3
		c0,0.6,0,1-0.3,1.6v0.3c-1.9,5.8-1.9,11.5,0.6,17c4.8,11.2,13.5,17.6,25.3,19.5c1,0.3,2.2,0.3,3.2,0.6h1.3c1,0,1.6,0.3,2.6,0.3
		c1.6,0.3,3.2,0.3,4.8,0.6c2.9,0.3,5.8,0.3,8.6-0.3c9-1.6,11.2-3.2,15.7-11.2c4.5-8,7.4-16.7,8.6-25.6c0.3-1.6,0.6-2.6,1.9-3.2
		c3.8-2.2,7-5.1,9.6-8.6c1-1.3,2.2-1.6,3.8-1.3c5.1,1,10.2,1.3,15.7,1c16.7-0.6,32.3-5.4,46.4-14.1c1.3-1,2.6-1,4.2-0.3
		c9.6,3.5,19.5,5.1,29.8,4.2c15.7-1.3,29.8-6.4,41.3-17.3c1-1,1.9-1.3,3.2-1.3c5.1-0.6,9.9-1.3,14.7-3.5c7-3.2,10.9-8.6,10.9-16.7
		c0-4.5-1.6-8.3-4.2-11.9c-2.9-4.2-6.1-8-9.9-11.2c-6.1-5.4-12.8-10.9-19.2-16c-2.6-2.2-4.8-4.8-7.4-7c-0.6-0.6-0.6-1.3-1-2.2
		c-1.9-8-4.8-15.4-8.6-22.4c-0.6-1.3-0.6-2.2-0.3-3.5c2.2-5.4,4.8-10.2,10.2-12.8c0.6-0.3,1-0.6,1.6-1c1.9-1.3,2.6-3.2,1.9-5.4
		c-0.3-2.2-1.9-3.5-3.8-4.8c-2.9-1.9-6.4-2.9-9.6-3.8c-7.4-1.9-14.4-2.2-21.8-0.3c-1.6,0.3-2.9,0.3-4.2-1c-1.6-1.6-3.5-2.6-5.1-4.2
		c-14.7-11.9-31.4-20.8-49.3-26.9c-16-5.8-32.7-9.3-49.6-10.2c-2.2,0-2.2-0.3-1.6-2.6c1.6-4.8,2.9-9.6,4.2-14.4
		c2.2-9,1.9-17.9-1-26.6c-3.2-9.6-12.8-15.7-22.7-15.4c-7,0.3-13.1,2.6-18.9,6.4c-7.4,4.8-14.1,9.9-20.5,16
		c-8,7.7-15.7,15.7-23.1,24c-4.5,5.1-9.3,10.2-14.4,15.1c-1.9,1.9-3.5,3.5-5.8,4.8c-1.3,0.6-2.2,1-3.8,0.6c-2.2-0.3-4.5-0.6-6.7-1.3
		c-6.4-1.6-13.1-2.6-19.9-1.9c-3.5,0.3-6.1-1-8-3.2c-0.6-0.6-1-1-1.6-1.6c-6.4-7.7-12.8-15.7-17.9-24.7
		c-5.8-9.9-11.9-19.5-17.6-29.5c-1.3-2.2-2.6-4.5-4.2-6.4c-2.6-3.2-5.4-6.1-9-8c-5.1-2.6-10.6-1.3-14.1,3.2c-1,1.3-1.9,2.9-2.6,4.5
		c-1.6,3.8-2.6,8-2.9,12.2c-1.9,14.7-2.2,29.5-1.9,44.5c0,10.9-0.3,21.5-2.2,32c-0.6,3.8-1.3,7.4-3.8,10.2c-0.3,0.3-0.6,1-1,1.6
		c-6.1,10.9-9.3,22.4-11.5,34.6c-1.6,8-2.2,16-2.9,24.3c0,1.6-0.6,2.6-1.6,3.8c-3.8,4.5-6.7,9.3-9,14.7c-0.6,1.6-1.6,2.2-3.2,2.9
		c-6.7,2.2-13.1,5.4-18.9,9.6c-7.4,5.4-13.5,11.5-17.3,19.9C67,253.9,66,256.8,65.4,260L65.4,260z M278.7,301
		c-5.8,3.2-11.5,5.4-17.9,6.7c-0.3,0-0.3,0-0.6,0c-0.6,0.3-1.3,0.3-2.2,0c0-0.6,0.3-1.3,0.6-1.9c0-0.3,0.3-0.3,0.3-0.6
		c6.4-12.5,9.3-25.9,6.4-40c-3.8-18.3-14.7-31.4-31.4-39.4c-7.7-3.8-15.7-5.8-24.3-6.4c-1.3,0-2.2-0.3-2.9-1.6
		c-1.3-1.9-3.2-3.2-5.1-4.2c-5.8-2.9-12.2-3.5-18.6-1.9c-2.2,0.6-4.2,1.6-5.4,3.2c-1,1-1.9,1.3-3.2,1.3c-8.6-0.6-17,0-25.3,2.9
		c-17.6,6.1-29.1,17.9-35.2,35.6c-1.3,4.2-2.2,8.3-2.6,12.5c0,0.6,0,1-0.3,1.6c0,0.3,0,0.3,0,0.6c-0.6,0-0.6-0.3-0.6-0.6l0,0
		c-2.2-9-4.2-17.6-3.5-27.2c1.3-13.8,6.1-26.3,15.1-36.5c0.3-0.3,1-1,1.3-1.3c1-1.3,1.6-2.6,1-4.2c-0.6-1-0.6-2.2-0.6-3.5
		c1.3-16.7,4.2-33.3,11.5-48.7c2.2-4.5,4.8-9,8-12.8c2.6-2.9,5.4-5.8,9-7.4c1-0.3,1.6-1,2.2-1.9c0.6-1,0.6-1.9,0-2.6
		c-0.6-1-1.6-1.3-2.6-1c-1.3,0.3-2.6,1-3.5,1.6c-1.6,1.3-3.5,2.6-5.1,3.8c-0.6-0.3-0.6-0.6-0.3-1l0,0c1.9-9.3,1.9-18.9,1.9-28.2
		c0-12.8,0-25.6,1.3-38.4c0.6-5.4,1.3-10.6,2.9-15.7c0.6-1.3,1-2.9,1.9-3.8c2.6-3.5,6.7-3.5,9.9-0.6c8.6,7.4,12.5,17.9,15.4,28.2
		c4.5,15.7,6.7,31.7,8,48c0,1.6,0.3,3.2,0.3,4.8c0.3,1.6,1.3,2.9,2.6,2.9c1.6,0,2.6-1.3,2.6-3.2c0-5.8-0.6-11.9-1.3-17.6
		c-1-9-2.6-17.9-4.5-26.9v-0.3c0-0.3-0.3-1,0-1.3c0.6,0.3,0.6,1,1,1.6c5.8,10.2,12.8,19.5,20.2,28.8c1.6,1.9,3.5,3.8,5.4,5.4
		c1.9,1.6,3.8,2.2,6.1,2.2c3.2-0.3,6.7,0,9.9,0.3c0.3,0,0.6,0,0.6,0c0.3,0,1,0,1.3,0c0.3,0,0.3,0,0.6,0c0.3,0.6,0,1-0.3,1.3
		c0,0-0.3,0-0.3,0.3c-8.6,9.3-13.8,20.5-17,32.7c-1,4.2-1.9,8.3-2.6,12.5c-0.3,2.2,0.3,3.2,1.6,3.2c1.3,0,1.9-0.6,2.2-2.6
		c1.3-9,3.5-17.6,7.4-25.9c2.9-6.4,6.7-12.5,11.2-17.9c1.9-2.2,3.5-3.2,6.4-2.2c2.9,1,5.8,1.3,8.6,1.6c1.9,0.3,3.8,0,5.4-1
		c3.2-1.6,5.8-3.8,8.3-6.4c5.1-5.1,9.9-9.9,14.4-15.4c7-8,14.7-15.7,22.4-23.4c5.4-5.4,11.5-10.2,17.9-14.4c1.6-1,3.2-2.2,5.1-2.6
		c-6.1,5.4-12.2,11.5-17.3,17.9c-9.9,12.2-17.9,25.6-22.7,41c-1.6,5.1-2.6,9.9-3.2,15.4v0.3c0,0.6,0,1,0,1.6c0,1.3,1,2.2,2.2,2.6
		c1.3,0.3,2.2-0.6,2.9-1.9c0-0.3,0.3-1,0.3-1.3c1.9-16.7,8.6-31.4,18.3-45.2c8-11.5,17.6-21.5,28.8-29.8c2.9-2.2,6.4-2.9,9.9-2.6
		c5.8,0.6,9.3,4.2,11.5,9.3c2.6,6.4,3.2,13.1,2.2,19.9c-1,6.4-2.6,12.5-4.8,18.3c-4.5,12.5-7,25.3-8.6,38.1v1
		c-1,7-1.6,13.8-3.2,20.8c-1,4.8-2.6,9.6-4.5,14.4c-0.3,0.3-0.3,1-1,1.3c-0.6-0.6-0.6-1.6-1-2.2c-3.2-10.6-8.3-20.2-15.4-28.5
		c-0.6-0.6-1-1.3-1.9-1.9c-1-0.6-1.9-0.6-2.9,0c-1,0.6-1.3,1.9-0.6,3.2c0.3,0.3,0.3,0.6,0.6,1c9.9,11.9,15.4,25.3,18.3,40.4
		c2.9,16.3,2.2,32.3-1.6,48.4c-4.2,17-11.2,32.7-22.1,46.4C297,287.8,288.6,295.5,278.7,301L278.7,301z M528.8,250
		c-0.6,3.5-2.9,6.1-5.8,7.7c-3.2,1.6-6.4,2.6-9.9,3.2c-0.3,0-0.6,0-0.6-0.3c0-0.6,0.3-1,0.6-1.6c0-0.3,0.3-0.3,0.3-0.6
		c1.6-2.9,3.2-5.4,4.2-8.6c0.6-1.6,0-2.9-1.3-3.5c-1.3-0.6-2.6,0-3.5,1.6c-0.6,1-1,2.2-1.3,3.2c-3.5,7.4-8.6,13.1-15.4,17.9
		c-11.5,8-24.7,11.5-38.8,11.5c-5.8,0-11.5-1-17-2.6c-1-0.3-1.9-0.3-2.6-1c0.3-1,1.3-1.3,1.9-1.9c7.4-6.1,13.5-12.8,17.6-21.5
		c0.6-1,1-2.2,1.3-3.5c0.3-1.6-0.3-2.9-1.3-3.2c-1.3-0.3-2.6,0-3.2,1.3c0,0.3-0.3,0.3-0.3,0.6c-4.5,10.2-11.9,18.3-20.8,24.7
		c-13.8,9.9-29.1,15.4-46.1,17c-5.4,0.3-10.9,0.3-16.3-0.3c-0.3,0-0.6-0.3-1-0.3c-0.3-0.6,0-1.3,0.3-1.6l0.3-0.3
		c7.7-13.1,11.2-27.5,10.6-42.9c-0.3-8.3-2.2-16.7-6.1-24c-0.3-1-1-1.6-1.6-2.2c-1-1-2.2-1-3.2-0.3c-1,0.6-1.3,1.6-1,2.9
		c0,0.3,0.3,1,0.6,1.3c4.5,7.4,6.1,15.4,6.1,24c0.3,15.4-3.5,29.5-12.2,42.3c-2.9,4.2-6.1,8-10.2,10.9c-1,0.6-1.6,1.3-2.6,1.6
		c-2.2,0.6-2.9,2.2-2.9,4.5c-1,8.3-3.5,16.3-7.4,23.7c-1.3,2.6-2.6,4.8-4.5,7c-1,1-1.9,1.9-3.5,2.2c-6.1,1.9-12.5,2.2-18.9,1.3
		c-2.2-0.3-2.2-0.3-2.2-2.6c0-2.9,0.6-5.4,1.6-8c0.6-1.9,0.6-2.6-0.3-2.9c-1-0.3-1.6,0.3-2.6,1.9c-1.3,2.9-1.9,5.8-2.2,9
		c0,1.6-0.3,1.6-1.6,1.3c-4.8-1.6-9.3-3.8-13.1-7.4c-1-1-1.3-1.6-1-2.9c0.6-2.6,1.3-5.1,2.2-7.4c0.3-0.3,0.3-1,0.6-1.3
		c0.3-1,0.6-1.6-0.3-2.2c-1-0.6-1.9,0-2.2,1c-1,1.6-1.6,3.5-2.2,5.1c-0.3,1-0.3,1.9-1,2.6c-1-0.3-1.3-1.3-1.6-1.9
		c-3.8-7.4-2.6-16.3,3.2-23.1c3.5-4.2,7-8,10.9-11.9c12.2-12.8,20.5-28.2,25.9-44.8c6.4-19.9,8-40.4,4.5-60.9
		c-0.3-1-0.3-1.9,0.3-2.9c5.8-11.2,8.6-23.1,10.2-35.6c0.3-1.6,0.3-2.9,0.6-4.5c1-7,1.6-14.1,3.2-21.1c0.6-3.5,1.6-6.7,2.6-10.2
		c0.6-2.2,0.6-2.2,2.9-1.9l0,0c4.5,0.3,9.3,0.6,13.8,1.3c22.1,3.2,42.9,9.9,62.5,20.8c16.3,9,30.7,20.5,42,35.6
		c9.9,13.1,17,27.9,18.9,44.5c0.6,5.8,0.6,11.2,0.3,17c0,0.3,0,0.3,0,0.6s0,1,0,1.3c0,1.6,1,2.6,2.2,2.9c1.3,0.3,2.6-0.6,2.9-2.2
		c0.3-1,0.3-1.9,0.3-2.9l0,0c0.3-4.8,0.3-9.6,0-14.4v-0.3c0-0.6,0-1,0-1.6c0.3,0,0.6,0,1,0.3l0,0c7,6.1,14.1,12.2,21.1,17.9
		c3.5,3.2,6.7,6.4,9.3,10.6C528.5,241.7,529.8,245.6,528.8,250L528.8,250z M467.4,148.2c7.7-0.3,15.1,0.6,22.4,3.8
		c0.3,0,0.6,0.3,0.6,0.3c1,0.6,2.2,1,2.2,1.9s-0.6,1-1.3,1.3c-0.3,0-0.3,0.3-0.6,0.3c-2.2,1.3-4.2,2.9-5.8,5.1
		c-1.9,2.2-3.2,4.8-4.8,7.4c-4.5-7-9.9-13.5-15.7-19.5C465.1,148.2,466.1,148.2,467.4,148.2L467.4,148.2z M258.2,294.6
		c-1.6,4.5-3.5,8.6-6.1,12.8c-1,1.3-1.9,1.9-3.2,1.9c-14.4,0-26.9-5.4-37.5-15.4c-7.4-7-12.8-15.4-17-24.7c-0.3-1-0.6-1.9-1.3-2.6
		c-1.3-1.9-3.2-1.9-4.5-0.3c-0.3,0.6-1,1.3-1.3,1.9c-3.8,6.7-8.6,12.8-15.1,17.3c-9.3,6.7-19.5,9.9-30.7,8
		c-10.2-1.6-18.3-7.4-24.7-15.7c-0.3-0.6-0.6-1.3-0.6-2.2c0-17.9,5.4-33.3,20.2-44.8c9.3-7,20.2-9.9,32-10.2c1.3,0,2.2,0,3.5,0
		c2.6,0,4.8,0.3,6.4,2.9c1.6,2.6,4.8,3.8,7.7,4.8c1.3,0.3,2.6,0.6,3.8,1c1,0.3,1.3,0.6,1.3,1.9c-0.3,2.2-0.6,4.2-1,6.4
		c0,1-0.3,1.6-0.3,2.6l0,0c0,0.6-0.3,1.6-0.3,2.2c-0.3,1.9-0.3,3.8-0.6,5.8c0,0.6,0,1.3,0,1.9c0,0.6,0.6,1.3,1.3,1.3s1.3,0,1.6-1
		c0.3-0.6,0.3-1.6,0.6-2.2c0.6-5.4,1.3-10.9,1.9-16.3c0.3-1.9,0.3-2.2,2.2-2.2c4.8-0.3,9-1.9,12.5-5.1c0.6-0.6,1.3-0.6,1.9-0.6
		c18.6,1.9,39.7,12.5,47.4,34.9C262.4,271.5,262.1,283,258.2,294.6L258.2,294.6z M99,281.1c-1,0-1.6-0.3-1.9-1.3
		c-0.3-1.9-0.6-4.2-0.3-6.1c0-0.3,0-0.6,0.3-1c0.3-1,0.3-1.9-1-2.2c-1-0.3-1.6,0.3-1.9,1.9c-0.3,1.9-0.6,3.5-0.3,5.4
		c0,0.3,0,1,0.3,1.3c0.3,2.6,0.3,2.6-2.2,2.2c-2.9,0-5.8-0.6-8.3-1.6c-1.3-0.3-1.9-1-2.2-2.2c-0.6-2.2-0.6-4.5-0.3-7
		c0.3-1.9,0-2.6-1-2.9c-1,0-1.6,0.6-1.9,2.2c-0.3,1-0.3,1.9-0.3,3.2c0,0.6,0,1.3,0,2.2c0,0.3,0,0.6,0,1c-0.6,0-1-0.3-1.3-0.6l0,0
		c-5.1-4.5-6.4-10.2-5.1-16.7c1-4.5,2.9-8.6,5.8-12.2c6.7-9.3,16-15.4,26.6-19.5c0.3,0,0.6-0.3,1.3,0c-4.5,17.9-3.2,34.9,6.4,51.2
		C106.7,279.8,102.9,280.8,99,281.1L99,281.1z M197.4,285.3c-5.4,1.3-9.9,0.6-14.7-1.6c2.9-3.2,5.4-6.4,8-10.6
		C192.9,277.6,194.8,281.4,197.4,285.3z M209.5,300c-13.5,0.6-26.9-0.3-39.4-5.8c0-0.6,0.3-1,0.6-1.3c0,0,0,0,0.3,0
		c2.9-1.6,5.4-3.5,7.7-5.8c0.6-0.6,1.3-1,2.6-0.6c5.8,2.6,11.5,3.5,17.3,1.6c0.6-0.3,1,0,1.3,0.3c2.9,3.8,6.4,7,9.6,10.6
		c0,0,0,0,0,0.3C209.5,300,209.5,300,209.5,300L209.5,300z"/>
	<path class="svg-elem-2" stroke="#101820" fill="#101820" d="M167.9,184.1c-1-0.6-1.9-0.3-2.9,0.3c-0.6,0.3-1,1-1.3,1.6c-1,1.6-2.2,2.9-3.8,4.2c-5.4,3.5-11.5,5.1-17.9,4.2
		c-2.9-0.3-5.4-1.3-6.7-4.2c-0.6-1.6-2.2-1.9-3.5-1.3c-1.3,0.6-1.9,1.9-1.3,3.8c1,2.6,2.6,4.2,5.1,5.4c2.2,1.3,4.5,1.9,7,2.2
		c7.7,0.6,14.7-1,21.1-5.4c1.9-1.3,3.8-3.2,5.1-5.4c0.3-0.6,1-1.6,1-2.6C169.5,185.3,168.9,184.4,167.9,184.1L167.9,184.1z"/>
	<path class="svg-elem-3" stroke="#101820" fill="#101820" d="M267.8,203.3c-0.6,0.3-1.6,1-2.2,1.3c-10.6,6.7-25.9,1-29.1-11.2c-0.3-0.6-0.3-1.3-0.6-1.6
		c-0.6-1.3-1.9-1.9-3.2-1.6c-1.3,0.3-1.9,1.3-2.2,2.6c0,1,0.3,1.9,0.6,3.2c2.6,9,10.6,16,21.5,17.3c6.1,0.6,11.9-1,16.7-4.2
		c0.6-0.3,1.3-1,1.9-1.6c1-1,1-2.2,0.3-3.2C270.7,203,269.1,202.6,267.8,203.3L267.8,203.3z"/>
	<path class="svg-elem-4" stroke="#101820" fill="#101820" d="M84.9,673.1L84.9,673.1c4.2,0,7.7-1.6,10.6-4.5c2.9-2.9,4.5-6.4,4.5-10.6v-246h18.3c4.2,0,7.7-1.6,10.6-4.5
		c2.9-2.9,4.5-6.4,4.5-10.6s-1.6-7.7-4.5-10.9c-2.9-2.9-6.4-4.5-10.6-4.5H87.5c-1.6,0-3.2,0-4.8,0H52.3c-4.2,0-7.7,1.6-10.9,4.5
		c-2.9,2.9-4.5,6.7-4.5,10.9c0,4.2,1.6,7.7,4.5,10.6c2.9,2.9,6.7,4.5,10.9,4.5h17.6v246c0,4.2,1.6,7.7,4.5,10.6
		S80.8,673.1,84.9,673.1z"/>
	<path class="svg-elem-5" stroke="#101820" fill="#101820" d="M227.8,673.1L227.8,673.1c13.1,0,24.3-4.5,33.6-13.1c10.2-10.6,15.4-24,15.4-39.7v-195
		c0-12.8-4.5-24-13.8-33.6c-9.3-9.6-20.5-14.4-33.9-15.1h-1.3c-13.8-0.3-25,4.2-34.3,13.1c-10.2,10.6-15.4,23.7-15.4,39.7v194.7
		c0,12.8,4.5,24,13.5,33.3c9,9.3,20.2,14.7,33.6,15.4h1.9C227.5,673.1,227.5,673.1,227.8,673.1C227.5,673.1,227.8,673.1,227.8,673.1
		L227.8,673.1z M226.5,407L226.5,407h0.3h0.3h0.3h1c5.1,0.3,9.3,2.2,12.5,6.1c3.2,3.8,4.8,7.7,4.8,12.2v195c0,7.7-1.9,13.8-6.1,17.9
		c-2.9,2.9-7,4.5-12.2,4.5c0,0,0,0-0.3,0l0,0c-0.3,0-0.6,0-0.6,0h-0.3c-5.1-0.3-9.3-2.6-12.5-6.4c-3.2-3.8-4.8-7.7-4.8-12.2v-195
		c0-7.7,1.9-13.8,6.1-17.9C217.9,408.6,221.7,407,226.5,407L226.5,407z"/>
	<path class="svg-elem-6" stroke="#101820" fill="#101820" d="M371.3,672.5L371.3,672.5L371.3,672.5c0.3,0,0.3,0,0.3,0h1.6c8,0,12.2,0,12.5,0c13.5,0,23.4-3.5,29.1-10.6
		c5.8-7,9.3-17.6,9.9-31.4V394.8c0-4.5-1.6-8-4.5-11.2c-3.2-3.2-6.7-4.5-11.2-4.5s-8,1.6-11.2,4.5c-3.2,3.2-4.5,6.7-4.5,11.2v121.4
		h-30.7c-2.9,0-5.1-1.3-6.7-3.5c-1.6-2.2-2.6-4.5-2.6-6.7V394.5c0-4.5-1.6-8-4.5-11.2c-3.2-3.2-6.7-4.5-11.2-4.5s-8.3,1.6-11.2,4.5
		c-3.2,3.2-4.5,6.7-4.5,11.2v111.1c0,10.9,3.8,20.5,11.5,28.5c7.7,8,17.3,12.5,28.8,13.1H394v83c0,2.2-1,4.5-2.6,6.7
		c-1.6,2.2-7.7,3.5-17.9,3.8h-1.3c0,0,0,0-0.3,0l0,0l0,0l0,0h-0.3c-9,0-14.1-0.6-15.4-2.2c-4.2-4.2-5.1-20.5-3.5-49.3
		c0-4.5-1.6-8-4.5-11.2c-3.2-3.2-6.7-4.5-11.2-4.5s-8.3,1.6-11.2,4.5c-3.2,3.2-4.5,6.7-4.5,11.2c-1.3,41.6,3.2,65.7,13.1,71.7
		C337,669.9,349.5,673.8,371.3,672.5L371.3,672.5z"/>
	<path class="svg-elem-7" stroke="#101820" fill="#101820" d="M514.8,674.1L514.8,674.1c0.3,0,0.6,0,1,0c11.5-0.3,21.5-4.2,29.8-11.2c8.3-7,13.8-16.3,16-27.5
		c0.3-1.9,0.6-6.1,0.6-13.1c0-7,0.3-14.1,0.3-21.8c0-7.7,0-12.5,0-15.4c0,0,0,0,0-0.3c0-4.8-1-10.9-3.2-18.3s-7-13.8-14.4-19.5
		c-7.4-5.8-18.6-8.6-33.6-8.6c-0.3,0-0.6,0-1,0c-1.6,0-3.2-0.3-4.2-0.6c-1.3-0.3-2.2-1.6-2.6-3.8c-0.6-1.9-1-5.4-1.3-9.9
		c0-0.6,0-1.6,0-2.2c0-9,0-22.4,0-40.7c0-17.9,0-33,0-45.2c0-1.6,0-2.9,0-4.2v-4.5l0.3-0.6c0-6.4,1-10.6,2.6-12.5s5.1-2.9,10.2-2.9
		c1.3,0,2.6,0,3.8,0.3c1.3,0.3,2.6,0.6,3.2,1.6c0.6,0.3,1.3,1.6,1.9,3.5c0.6,1.9,1,5.1,0.6,9.6c0,0,0,1.6,0,5.1
		c0,3.5,0,7.7,0.3,12.2c0,4.5,0,8.6,0.3,12.5c0,3.8,0,5.8,0,6.4c0,4.5,1.6,8,4.5,10.9c2.9,2.9,6.4,4.5,10.6,4.5l0,0
		c4.2,0,7.7-1.6,10.6-4.5c2.9-2.9,4.5-6.4,4.5-10.6c0-0.3,0-2.6,0-6.4c0-3.8,0-8-0.3-12.5c0-4.5,0-8.6-0.3-12.2c0-3.5,0-5.1,0-5.1
		c0.3-15.1-3.2-26.6-11.2-34.9c-2.6-2.6-6.1-5.1-10.9-7.4c-4.5-2.2-10.6-3.5-17.9-3.5c0,0,0,0-0.3,0c0,0,0,0-0.3,0
		c-7.7,0-16.3,2.9-25.9,8.3c-9.6,5.4-15.4,17.6-17,36.2v6.7c0,9.6,0,23.4,0,41.3s0,32.7,0,44.2c0,0.6-0.3,1.6-0.3,2.2
		c0,32,12.5,48,37.8,48.4h0.3h0.3h0.3h0.3c9.3,0,15.4,1.6,17.6,4.8c2.2,3.2,3.2,7,2.9,12.2c0,1.9,0,6.1,0,12.2
		c0,6.1,0,12.5-0.3,18.9c0,6.4,0,10.9,0,13.1c-1,3.5-2.9,6.7-5.8,9.6c-2.9,2.9-6.7,4.5-11.2,4.5c-3.8,0-7-0.6-9.3-2.2
		c-2.2-1.6-4.2-3.2-5.8-5.1c-1.3-1.9-2.2-3.8-2.9-5.4c-0.6-1.6-0.6-2.6-0.6-3.2v-5.1c0-0.3,0-1,0-1.3c0-7.7-0.3-17.9-0.3-30.7
		c0-4.2-1.6-7.7-4.5-10.6s-6.4-4.5-10.6-4.5c-4.2,0-7.7,1.6-10.9,4.5c-2.9,2.9-4.5,6.4-4.5,10.6c0,12.8,0,23.1,0.3,31.1
		c0,0.6,0,1,0,1.3v5.8c0,0.3,0,0.6,0,0.6c0.3,9.9,4.8,19.9,12.8,30.1C486.9,669,498.7,674.1,514.8,674.1L514.8,674.1z"/>
	<g>
		<path class="svg-elem-8" stroke="#101820" fill="#101820" d="M38.2,706.8v-2.6h525.6v2.6H38.2z"/>
		<path class="svg-elem-9" stroke="#101820" fill="#101820" d="M38.2,799v-2.6h525.6v2.6H38.2z"/>
	</g>
	<g>
		<path class="svg-elem-10" stroke="#101820" fill="#101820" d="M80.1,759.3c-2.9-3.2-11.9-2.2-16.3-5.8c-2.6-1.9-3.2-5.8-1.3-8.3c1-1.3,2.2-2.2,4.2-2.9c1.9-0.6,4.2-1,6.1-1
			c4.5,0,9,1.6,11.5,4.5l-4.5,2.2c-1.6-1.9-3.8-2.9-7.7-2.9c-2.9,0-5.1,1.3-5.4,3.2c-0.6,3.5,9.6,4.8,10.2,4.8
			c3.2,0.6,6.1,1.9,8,3.8c1.9,2.2,1.9,5.1,0.3,7.7c-1.3,1.9-3.5,3.2-6.1,4.2c-2.2,0.6-4.5,0.6-6.7,0.6c-3.2,0-6.7-1.3-9-2.9
			c-1.3-1-2.6-2.2-2.9-3.8l5.1-1c0.3,1.3,1.6,1.9,2.9,2.6c2.6,1.3,6.4,1.3,9,0.3c1.3-0.3,2.2-1,2.9-1.9c0-0.3,0.3-0.3,0.3-0.6
			C80.8,761.5,80.8,760.2,80.1,759.3L80.1,759.3z"/>
		<path class="svg-elem-11" stroke="#101820" fill="#101820" d="M110.2,741.4c6.4,0,12.5,5.1,13.8,11.2c1,4.5-0.6,9.6-4.2,12.8c-3.8,3.8-9.9,5.1-15.1,2.9
			c-4.5-1.9-8-6.1-8.6-11.2c-1-6.1,2.6-12.2,8-14.7C106.4,741.7,108.3,741.4,110.2,741.4L110.2,741.4z M110.2,745.8
			c-4.5,0-8.6,3.5-9.6,7.7c-1.3,5.4,3.5,11.9,9.6,11.9c4.5,0,8.6-3.2,9.6-7.7C121.1,752.2,116.6,745.8,110.2,745.8L110.2,745.8
			L110.2,745.8z"/>
		<path class="svg-elem-12" stroke="#101820" fill="#101820" d="M138.4,749v20.8h-4.2v-28.2h5.1l11.5,20.5v-20.5h4.2v28.2h-4.8L138.4,749z"/>
		<path class="svg-elem-13" stroke="#101820" fill="#101820" d="M176.5,741.4c4.2,0,8.6,1.3,10.9,4.8c1.9,2.6,2.2,5.8,1,8.6c-1.3,2.6-3.5,4.2-6.4,5.4l5.8,9.6h-4.8l-5.4-8.6
			c-0.6,0-7.7,0-7.7,0v8.6h-4.2v-28.2L176.5,741.4z M170.5,756.7c3.5,0,7.4,0.3,10.6-0.6c2.9-1,5.4-3.8,3.5-7
			c-1.6-2.6-4.8-3.2-8-3.2h-6.1L170.5,756.7L170.5,756.7z"/>
		<path class="svg-elem-14" stroke="#101820" fill="#101820" d="M199.3,769.5h4.2v-28.2h-4.2V769.5z"/>
		<path class="svg-elem-15" stroke="#101820" fill="#101820" d="M234.2,759.3c-2.9-3.2-11.9-2.2-16.3-5.8c-2.6-1.9-3.2-5.8-1.3-8.3c1-1.3,2.2-2.2,4.2-2.9
			c1.9-0.6,4.2-1,6.1-1c4.5,0,9,1.6,11.5,4.5l-4.5,2.2c-1.6-1.9-3.8-2.9-7.7-2.9c-2.9,0-5.1,1.3-5.4,3.2c-0.6,3.5,9.6,4.8,10.2,4.8
			c3.2,0.6,6.1,1.9,8,3.8c1.9,2.2,1.9,5.1,0.3,7.7c-1.3,1.9-3.5,3.2-6.1,4.2c-2.2,0.6-4.5,0.6-6.7,0.6c-3.2,0-6.7-1.3-9-2.9
			c-1.3-1-2.6-2.2-2.9-3.8l5.1-1c0.3,1.3,1.6,1.9,2.9,2.6c2.6,1.3,6.4,1.3,9,0.3c1.3-0.3,2.2-1,2.9-1.9c0-0.3,0.3-0.3,0.3-0.6
			C235.2,761.5,235.2,760.2,234.2,759.3L234.2,759.3z"/>
		<path class="svg-elem-16" stroke="#101820" fill="#101820" d="M253.4,769.5h-4.8l10.2-28.2h4.8l10.2,28.2h-4.8l-2.2-6.1h-11.5L253.4,769.5z M257.3,759h8.3l-4.2-11.2
			L257.3,759z"/>
		<path class="svg-elem-17" stroke="#101820" fill="#101820" d="M302.1,759.3c-2.9-3.2-11.9-2.2-16.3-5.8c-2.6-1.9-3.2-5.8-1.3-8.3c1-1.3,2.2-2.2,4.2-2.9
			c1.9-0.6,4.2-1,6.1-1c4.5,0,9,1.6,11.5,4.5l-4.5,2.2c-1.6-1.9-3.8-2.9-7.7-2.9c-2.9,0-5.1,1.3-5.4,3.2c-0.6,3.5,9.6,4.8,10.2,4.8
			c3.2,0.6,6.1,1.9,8,3.8c1.9,2.2,1.9,5.1,0.3,7.7c-1.3,1.9-3.5,3.2-6.1,4.2c-2.2,0.6-4.5,0.6-6.7,0.6c-3.2,0-6.7-1.3-9-2.9
			c-1.3-1-2.6-2.2-2.9-3.8l5.1-1c0.3,1.3,1.6,1.9,2.9,2.6c2.6,1.3,6.4,1.3,9,0.3c1.3-0.3,2.2-1,2.9-1.9c0-0.3,0.3-0.3,0.3-0.6
			C303,761.5,303,760.2,302.1,759.3z"/>
		<path class="svg-elem-18" stroke="#101820" fill="#101820" d="M340.8,741.4c0,0,7,0,8.3,0c5.8,0,11.5,3.5,13.5,9c1.9,6.1,0,13.5-5.4,16.7c-2.2,1.6-5.1,2.2-8,2.2h-8.3
			V741.4z M345.3,765.4c3.5,0,6.7,0.3,9.6-1.3c5.1-2.9,6.1-11.5,1.6-15.7c-1.9-1.6-4.5-2.6-7-2.6h-4.2V765.4z"/>
		<path class="svg-elem-19" stroke="#101820" fill="#101820" d="M392.1,745.8h-14.4v4.8h9.6v4.2h-9.6v10.6h14.4v4.2h-18.6v-28.2h18.6V745.8z"/>
		<path class="svg-elem-20" stroke="#101820" fill="#101820" d="M426,741.4c0,0,8,0,10.6,0c2.9,0,6.1,1.6,7.4,4.2c1,1.9,0.6,4.2-0.3,5.8c2.2,1,4.2,2.9,5.1,5.4
			c1.3,3.2,0.6,7.4-1.9,9.6c-1.9,1.9-4.8,2.9-7.7,2.9l0,0h-13.5L426,741.4z M439.5,754.8h-9.3v10.6c3.2,0,9.9,0,9.9,0
			c1.9,0,3.8-1,4.8-2.9c1.3-2.9-0.6-6.4-3.8-7.4C440.4,754.8,439.8,754.8,439.5,754.8L439.5,754.8z M436.6,745.8h-6.4v4.8
			c2.2,0,4.5,0,6.7,0c1.9,0,4.2-0.6,3.5-2.6C440.1,746.5,437.9,745.8,436.6,745.8L436.6,745.8z"/>
		<path class="svg-elem-21" stroke="#101820" fill="#101820" d="M477.9,745.8h-14.4v4.8h9.6v4.2h-9.6v10.6h14.4v4.2h-18.6v-28.2h18.6V745.8z"/>
		<path class="svg-elem-22" stroke="#101820" fill="#101820" d="M488.8,741.4c0,0,8,0,10.6,0c2.9,0,6.1,1.6,7.4,4.2c1,1.9,0.6,4.2-0.3,5.8c2.2,1,4.2,2.9,5.1,5.4
			c1.3,3.2,0.6,7.4-1.9,9.6c-1.9,1.9-4.8,2.9-7.7,2.9l0,0h-13.5L488.8,741.4z M502.3,754.8H493v10.6c3.2,0,9.9,0,9.9,0
			c1.9,0,3.8-1,4.8-2.9c1.3-2.9-0.6-6.4-3.8-7.4C503.5,754.8,502.9,754.8,502.3,754.8L502.3,754.8z M499.4,745.8H493v4.8
			c2.2,0,4.5,0,6.7,0c1.9,0,4.2-0.6,3.5-2.6C502.9,746.5,501,745.8,499.4,745.8L499.4,745.8z"/>
		<path class="svg-elem-23" stroke="#101820" fill="#101820" d="M541,745.8h-14.4v4.8h9.6v4.2h-9.6v10.6H541v4.2h-18.6v-28.2H541V745.8z M531.7,734h1.9l-1.3,4.2h-1.9
			C530.8,736.5,531.4,735.3,531.7,734z"/>
	</g>
</g>
</svg>
